<svg xmlns="http://www.w3.org/2000/svg" viewBox="0 0 100 100">
	<ellipse id="circle" cx="50" cy="50" rx="50" ry="50"></ellipse>
	<g id="text" transform="matrix(0.494939, 0, 0, 0.494939, 24.795231, 34.644516)" style="">
		<path
			d="M 1.022 45.487 L 1.022 58.569 L -11.071 58.569 L -11.071 45.487 L 1.022 45.487 Z M 21.344 -5.594 L 21.344 9.582 C 22.664 8.057 24.135 6.915 25.759 6.158 C 27.382 5.411 29.146 5.038 31.05 5.038 C 33.247 5.038 35.151 5.378 36.763 6.061 C 38.376 6.753 39.604 7.716 40.448 8.949 C 41.292 10.194 41.8 11.412 41.974 12.601 C 42.147 13.792 42.233 16.33 42.233 20.214 L 42.233 43.913 C 42.233 47.765 41.974 50.637 41.454 52.531 C 40.935 54.414 39.729 56.048 37.835 57.433 C 35.93 58.829 33.669 59.527 31.05 59.527 C 29.178 59.527 27.431 59.116 25.807 58.293 C 24.184 57.471 22.696 56.242 21.344 54.609 L 20.321 58.569 L 5.339 58.569 L 5.339 -5.594 L 21.344 -5.594 M 26.213 20.928 C 26.213 18.202 26.045 16.421 25.71 15.588 C 25.364 14.755 24.687 14.338 23.681 14.338 C 22.707 14.338 22.074 14.701 21.781 15.426 C 21.49 16.162 21.344 17.996 21.344 20.928 L 21.344 43.588 C 21.344 46.412 21.511 48.224 21.846 49.025 C 22.171 49.815 22.821 50.21 23.795 50.21 C 24.8 50.21 25.455 49.799 25.759 48.977 C 26.062 48.154 26.213 46.184 26.213 43.068 L 26.213 20.928 Z M 63.513 5.979 L 62.88 12.878 C 65.206 7.932 68.572 5.319 72.976 5.038 L 72.976 23.542 C 70.043 23.542 67.89 23.937 66.516 24.727 C 65.141 25.516 64.298 26.62 63.984 28.038 C 63.67 29.445 63.513 32.702 63.513 37.809 L 63.513 58.569 L 47.492 58.569 L 47.492 5.979 L 63.513 5.979 Z M 112.922 5.979 L 112.922 46.477 C 112.922 51.953 112.797 55.486 112.548 57.076 C 112.299 58.677 111.407 60.371 109.87 62.157 C 108.344 63.942 106.213 65.3 103.475 66.231 C 100.737 67.172 97.297 67.643 93.152 67.643 C 88.055 67.643 83.959 66.777 80.865 65.046 C 77.77 63.314 76.174 59.911 76.077 54.836 L 91.61 54.836 C 91.61 57.162 92.454 58.326 94.142 58.326 C 95.354 58.326 96.16 57.969 96.561 57.255 C 96.95 56.541 97.145 55.053 97.145 52.791 L 97.145 48.815 C 95.781 50.059 94.337 51 92.811 51.638 C 91.296 52.266 89.706 52.58 88.039 52.58 C 85.16 52.58 82.79 52.001 80.93 50.843 C 79.068 49.674 77.791 48.149 77.098 46.266 C 76.417 44.372 76.077 41.683 76.077 38.199 L 76.077 19.094 C 76.077 14.106 76.975 10.514 78.77 8.316 C 80.567 6.13 83.3 5.038 86.968 5.038 C 88.98 5.038 90.809 5.444 92.454 6.255 C 94.11 7.078 95.581 8.306 96.868 9.94 L 98.021 5.979 L 112.922 5.979 M 96.868 19.939 C 96.868 17.525 96.733 15.988 96.463 15.329 C 96.182 14.669 95.565 14.338 94.613 14.338 C 93.693 14.338 93.038 14.718 92.648 15.474 C 92.27 16.221 92.08 17.709 92.08 19.939 L 92.08 37.598 C 92.08 39.958 92.227 41.483 92.519 42.176 C 92.811 42.879 93.417 43.23 94.337 43.23 C 95.397 43.23 96.084 42.809 96.398 41.964 C 96.712 41.121 96.868 39.205 96.868 36.219 L 96.868 19.939 Z"
		></path>
	</g>

	<style>
		#circle {
			fill: #6e6a86;
		}
		#text {
			fill: #fffaf3;
		}
	</style>
</svg>
