<svg xmlns="http://www.w3.org/2000/svg" viewBox="0 0 470 420">
	<g stroke-width="5" transform="matrix(0.786207, 0, 0, 0.786207, 59.037643, 18.007244)">
		<path
			d="M 256 517.055 C 304.368 523.335 352.195 494.664 388.32 461.894 C 421.683 431.63 432.785 386.019 447.415 343.416 C 460.696 304.744 469.692 266.182 469.571 225.293 C 469.434 178.871 468.054 131.987 446.67 90.784 C 421.718 42.706 391.824 -14.763 338.929 -26.431 C 285.769 -38.158 242.96 18.379 190.923 34.369 C 139.829 50.07 74.853 28.482 37.096 66.319 C -0.603 104.097 9.078 166.747 5.674 220.009 C 2.524 269.307 -9.134 323.418 18.032 364.676 C 44.607 405.037 103.364 404.124 144.06 430.183 C 184.658 456.179 208.193 510.849 256 517.055"
			fill="#f2e9e1"
			style="transform-box: fill-box; transform-origin: 50% 50%; stroke: rgb(35, 33, 54);"
			transform="matrix(0.445789, -0.895138, 0.895138, 0.445789, -0.000016, 0.000014)"
			stroke-width="5"></path>
	</g>
	<g
		id="SVGRepo_iconCarrier"
		style="transform-origin: 253.058px 262.137px; stroke: rgb(35, 33, 54);"
		transform="matrix(0.591428, 0.604059, -0.604059, 0.591428, 20.674026, -119.045074)"
		stroke-width="5"
	>
		<path
			style="fill:#907aa9;"
			d="M191.194,148.304h129.614l-58.319-91.782c-3.014-4.743-9.962-4.743-12.975,0L191.194,148.304z"
		></path>
		<path
			style="fill:#9ccfd8;"
			d="M510.799,447.304l-41.908-65.953H43.11L1.202,447.304c-3.234,5.089,0.439,11.731,6.488,11.731h496.62 C510.359,459.035,514.033,452.393,510.799,447.304z"
		></path>
		<polygon
			style="fill:#f6c177;"
			points="43.11,381.352 468.891,381.352 419.529,303.668 92.471,303.668 "></polygon>
		<polygon
			style="fill:#ea9a97;"
			points="92.471,303.668 419.529,303.668 370.168,225.987 141.832,225.987 "></polygon>
		<polygon
			style="fill:#e0def4;"
			points="141.832,225.987 370.168,225.987 320.808,148.304 191.194,148.304 "></polygon>
	</g>
</svg>
